<?xml version="1.0" encoding="iso-8859-1"?>
<!-- Generator: Adobe Illustrator 19.0.0, SVG Export Plug-In . SVG Version: 6.00 Build 0)  -->
<svg version="1.1" id="Capa_1" xmlns="http://www.w3.org/2000/svg" xmlns:xlink="http://www.w3.org/1999/xlink" x="0px" y="0px"
	 viewBox="0 0 512 512" style="enable-background:new 0 0 512 512;" xml:space="preserve">
<path style="fill:#D3D3D8;" d="M241,31C108.401,31,0,138.399,0,271c0,132.6,108.401,241,241,241s240-108.4,240-241
	C481,138.399,373.6,31,241,31z M241,331c-32.999,0-60-27.001-60-60c0-33.001,27.001-60,60-60s60,26.999,60,60
	C301,303.999,273.999,331,241,331z"/>
<path style="fill:#BABAC0;" d="M241,31v180c32.999,0,60,26.999,60,60c0,32.999-27.001,60-60,60v181c132.6,0,240-108.4,240-241
	C481,138.399,373.6,31,241,31z"/>
<path style="fill:#E7E7E7;" d="M241,61C125.2,61,31,155.2,31,271s94.2,210,210,210s210-94.2,210-210S356.8,61,241,61z M241,331
	c-32.999,0-60-27.001-60-60c0-33.001,27.001-60,60-60s60,26.999,60,60C301,303.999,273.999,331,241,331z"/>
<g>
	<path style="fill:#D3D3D8;" d="M241,61v150c32.999,0,60,26.999,60,60c0,32.999-27.001,60-60,60v150c115.8,0,210-94.2,210-210
		S356.8,61,241,61z"/>
	<path style="fill:#D3D3D8;" d="M241,151c-66.301,0-120,53.699-120,120c0,66.299,53.699,120,120,120s120-53.701,120-120
		C361,204.699,307.301,151,241,151z M241,331c-32.999,0-60-27.001-60-60c0-33.001,27.001-60,60-60s60,26.999,60,60
		C301,303.999,273.999,331,241,331z"/>
</g>
<path style="fill:#BABAC0;" d="M241,151v60c32.999,0,60,26.999,60,60c0,32.999-27.001,60-60,60v60c66.301,0,120-53.701,120-120
	C361,204.699,307.301,151,241,151z"/>
<g>
	<path style="fill:#D3D3D8;" d="M256,436c0,8.399-6.599,15-15,15s-15-6.601-15-15c0-8.401,6.599-15,15-15S256,427.599,256,436z"/>
	<circle style="fill:#D3D3D8;" cx="76" cy="271" r="15"/>
	<circle style="fill:#D3D3D8;" cx="124.33" cy="387.67" r="15"/>
	<circle style="fill:#D3D3D8;" cx="124.33" cy="154.33" r="15"/>
</g>
<circle style="fill:#BABAC0;" cx="357.67" cy="387.67" r="15"/>
<path style="fill:#E10000;" d="M497,271h-91c-8.291,0-15-6.709-15-15c0-74.443-60.557-135-135-135c-8.291,0-15-6.709-15-15V15
	c0-8.291,6.709-15,15-15c140.61,0,256,115.39,256,256C512,264.291,505.291,271,497,271z"/>
<path style="fill:#BABAC0;" d="M256,436c0,8.399-6.599,15-15,15v-30C249.401,421,256,427.599,256,436z"/>
<g>
</g>
<g>
</g>
<g>
</g>
<g>
</g>
<g>
</g>
<g>
</g>
<g>
</g>
<g>
</g>
<g>
</g>
<g>
</g>
<g>
</g>
<g>
</g>
<g>
</g>
<g>
</g>
<g>
</g>
</svg>
