<?xml version="1.0" encoding="iso-8859-1"?>
<!-- Generator: Adobe Illustrator 19.0.0, SVG Export Plug-In . SVG Version: 6.00 Build 0)  -->
<svg version="1.1" id="Layer_1" xmlns="http://www.w3.org/2000/svg" xmlns:xlink="http://www.w3.org/1999/xlink" x="0px" y="0px"
	 viewBox="0 0 512 512" style="enable-background:new 0 0 512 512;" xml:space="preserve">
<rect x="259.718" y="49.447" transform="matrix(-0.7071 -0.7071 0.7071 -0.7071 487.1571 522.2927)" style="fill:#707487;" width="184.062" height="221.612"/>
<path style="fill:#AAB1C6;" d="M496.016,109.222l-93.237-93.237c-21.312-21.312-55.866-21.312-77.178,0l0,0l170.416,170.416l0,0
	C517.328,165.088,517.328,130.534,496.016,109.222z"/>
<path style="opacity:0.1;enable-background:new    ;" d="M371.561,61.946c21.312-21.312,55.866-21.312,77.178,0l-45.961-45.961
	c-21.312-21.312-55.866-21.312-77.178,0l0,0L371.561,61.946L371.561,61.946z"/>
<path style="fill:#707487;" d="M200.835,454.097l-10.162-10.162c8.387-23.455,7.363-49.521-3.097-72.332l94.96-94.96l-47.179-47.181
	l-94.96,94.96c-22.811-10.46-48.877-11.482-72.332-3.097l-10.162-10.162L0,369.067l10.159,10.159
	c-12.096,33.817-4.617,73.067,22.465,100.15c27.082,27.083,66.333,34.562,100.15,22.465l10.159,10.159L200.835,454.097z
	 M61.057,450.943c-21.739-21.739-21.739-56.983,0-78.72s56.983-21.739,78.72,0s21.739,56.983,0,78.72
	C118.039,472.681,82.796,472.681,61.057,450.943z"/>
<rect x="206.077" y="244.973" transform="matrix(0.7071 0.7071 -0.7071 0.7071 262.8642 -89.476)" style="opacity:0.1;enable-background:new    ;" width="66.724" height="55.188"/>
<path style="fill:#AAB1C6;" d="M211.277,142.004l-73.317,73.317l26.454,26.454l0,0c11.757-11.757,30.819-11.757,42.576,0
	l63.235,63.235c11.757,11.757,11.757,30.819,0,42.576l0,0l26.454,26.454l73.317-73.317L211.277,142.004z"/>
<g style="opacity:0.1;">
	<path d="M189.072,233.151l56.677-56.677l-34.471-34.471l-73.317,73.317l26.454,26.453
		C171.151,235.038,180.286,232.168,189.072,233.151z"/>
</g>
<path style="fill:#AAB1C6;" d="M458.64,183.51L328.491,53.36c-7.889-7.889-20.68-7.889-28.57,0l0,0
	c-7.889,7.889-7.889,20.68,0,28.57l130.15,130.15c7.889,7.889,20.68,7.889,28.57,0l0,0
	C466.529,204.19,466.529,191.399,458.64,183.51z"/>
<path style="opacity:0.1;enable-background:new    ;" d="M334.392,87.831L334.392,87.831c7.889-7.889,20.68-7.889,28.57,0
	L328.491,53.36c-7.889-7.889-20.68-7.889-28.57,0l0,0c-7.889,7.889-7.889,20.68,0,28.57l34.471,34.471
	C326.503,108.511,326.503,95.72,334.392,87.831z"/>
<path style="fill:#AAB1C6;" d="M407.176,234.974l-130.15-130.149c-7.889-7.889-20.68-7.889-28.57,0l0,0
	c-7.889,7.889-7.889,20.68,0,28.57l130.15,130.149c7.889,7.889,20.68,7.889,28.57,0l0,0
	C415.065,255.654,415.065,242.863,407.176,234.974z"/>
<path style="opacity:0.1;enable-background:new    ;" d="M282.928,139.296L282.928,139.296c7.889-7.889,20.68-7.889,28.57,0
	l95.679,95.679l0,0l-130.151-130.15c-7.889-7.889-20.68-7.889-28.57,0l0,0c-7.889,7.889-7.889,20.68,0,28.57l34.471,34.471
	C275.039,159.975,275.039,147.185,282.928,139.296z"/>
<g>
</g>
<g>
</g>
<g>
</g>
<g>
</g>
<g>
</g>
<g>
</g>
<g>
</g>
<g>
</g>
<g>
</g>
<g>
</g>
<g>
</g>
<g>
</g>
<g>
</g>
<g>
</g>
<g>
</g>
</svg>
