<?xml version="1.0" encoding="iso-8859-1"?>
<!-- Generator: Adobe Illustrator 19.0.0, SVG Export Plug-In . SVG Version: 6.00 Build 0)  -->
<svg version="1.1" id="Capa_1" xmlns="http://www.w3.org/2000/svg" xmlns:xlink="http://www.w3.org/1999/xlink" x="0px" y="0px"
	 viewBox="0 0 488 488" style="enable-background:new 0 0 488 488;" xml:space="preserve">
<g>
	<polyline style="fill:#656A73;" points="40,64 16,40 56,0 80,24 	"/>
	<polyline style="fill:#656A73;" points="224,320 256,352 368,240 336,208 	"/>
</g>
<rect x="112.392" y="5.442" transform="matrix(-0.7071 0.7071 -0.7071 -0.7071 355.2376 123.7372)" style="fill:#BF7D2C;" width="79.199" height="259.997"/>
<rect x="156.989" y="219.599" transform="matrix(-0.7071 0.7071 -0.7071 -0.7071 627.0414 236.2677)" style="fill:#A6A6A6;" width="215.198" height="56.799"/>
<g>
	
		<rect x="20.004" y="63.998" transform="matrix(-0.7071 0.7071 -0.7071 -0.7071 201.1414 60.6813)" style="fill:#CE9D36;" width="135.999" height="16"/>
	<polygon style="fill:#CE9D36;" points="97.6,137.6 86.4,126.4 142.4,70.4 153.6,81.6 	"/>
</g>
<g>
	
		<rect x="188.957" y="189.207" transform="matrix(-0.7071 0.7071 -0.7071 -0.7071 540.0822 200.3035)" style="fill:#656A73;" width="79.199" height="45.6"/>
	<polyline style="fill:#656A73;" points="376,384 424,432 456,400 408,352 	"/>
</g>
<g>
	<path style="fill:#7D828C;" d="M304,360c-4.8,0-8-3.2-8-8c0-2.4,0.8-4,2.4-5.6l64-64c3.2-3.2,8-3.2,11.2,0s3.2,8,0,11.2l-64,64
		C308,359.2,306.4,360,304,360z"/>
	<path style="fill:#7D828C;" d="M328,384c-4.8,0-8-3.2-8-8c0-2.4,0.8-4,2.4-5.6l64-64c3.2-3.2,8-3.2,11.2,0s3.2,8,0,11.2l-64,64
		C332,383.2,330.4,384,328,384z"/>
	<path style="fill:#7D828C;" d="M432,488c-2.4,0-4-0.8-5.6-2.4l-80-80c-3.2-3.2-3.2-8,0-11.2l64-64c3.2-3.2,8-3.2,11.2,0
		s3.2,8,0,11.2L363.2,400l68.8,68.8l26.4-26.4c3.2-3.2,8-3.2,11.2,0s3.2,8,0,11.2l-32,32C436,487.2,434.4,488,432,488z"/>
</g>
<g>
</g>
<g>
</g>
<g>
</g>
<g>
</g>
<g>
</g>
<g>
</g>
<g>
</g>
<g>
</g>
<g>
</g>
<g>
</g>
<g>
</g>
<g>
</g>
<g>
</g>
<g>
</g>
<g>
</g>
</svg>
