<?xml version="1.0" encoding="iso-8859-1"?>
<!-- Generator: Adobe Illustrator 19.0.0, SVG Export Plug-In . SVG Version: 6.00 Build 0)  -->
<svg version="1.1" id="Capa_1" xmlns="http://www.w3.org/2000/svg" xmlns:xlink="http://www.w3.org/1999/xlink" x="0px" y="0px"
	 viewBox="0 0 464 464" style="enable-background:new 0 0 464 464;" xml:space="preserve">
<path style="fill:#4398D1;" d="M380.24,41.416L280.192,8.064c-15.535-5.179-32.465-4.205-47.304,2.72L136,56H40v360
	c0,26.51,21.49,48,48,48l0,0h288c26.51,0,48-21.49,48-48l0,0V102.128C423.999,74.582,406.372,50.127,380.24,41.416L380.24,41.416z
	 M245.696,58.304L247.2,56.8c5.362-5.357,13.358-7.09,20.456-4.432l92.184,34.568c9.999,3.75,15.064,14.896,11.314,24.895
	c-0.645,1.72-1.532,3.339-2.634,4.809c-5.071,6.755-13.94,9.437-21.904,6.624l-93.688-33.056
	c-10.069-3.557-15.348-14.604-11.791-24.673C242.098,62.815,243.656,60.344,245.696,58.304z M384,356c0,11.046-8.954,20-20,20
	s-20-8.954-20-20V224c0-11.046,8.954-20,20-20s20,8.954,20,20V356z"/>
<path style="fill:#DE4C3C;" d="M40,0h96v56H40V0z"/>
<g>
	<path style="fill:#D64333;" d="M64,0h16v24H64V0z"/>
	<path style="fill:#D64333;" d="M96,0h16v24H96V0z"/>
</g>
<path style="fill:#3E8CC7;" d="M380.24,41.416L354.4,32.8c-4.315,16.24-8.944,31.872-13.888,46.896l19.296,7.2
	c9.999,3.75,15.064,14.896,11.314,24.895c-0.645,1.72-1.532,3.339-2.634,4.809c-5.071,6.755-13.94,9.437-21.904,6.624l-19.2-6.76
	C252.8,310.512,127.384,397.128,44,435.2c7.635,17.495,24.911,28.803,44,28.8h288c26.51,0,48-21.49,48-48V102.128
	C423.999,74.582,406.372,50.127,380.24,41.416L380.24,41.416z M384,356c0,11.046-8.954,20-20,20s-20-8.954-20-20V224
	c0-11.046,8.954-20,20-20s20,8.954,20,20V356z"/>
<path style="fill:#87CED9;" d="M88,160v224c0,17.673,14.327,32,32,32h152c17.673,0,32-14.327,32-32V182.4
	c-0.001-13.456-8.419-25.474-21.064-30.072L216,128h-96C102.327,128,88,142.327,88,160L88,160z"/>
<path style="fill:#FA962A;" d="M190.608,192l-42.456,94.344c-10.551,23.445-0.098,51.005,23.347,61.555
	c6.008,2.704,12.521,4.101,19.109,4.101c25.71,0.003,46.554-20.837,46.557-46.547c0.001-6.588-1.397-13.101-4.101-19.109
	L190.608,192z"/>
<g>
</g>
<g>
</g>
<g>
</g>
<g>
</g>
<g>
</g>
<g>
</g>
<g>
</g>
<g>
</g>
<g>
</g>
<g>
</g>
<g>
</g>
<g>
</g>
<g>
</g>
<g>
</g>
<g>
</g>
</svg>
