<?xml version="1.0" encoding="UTF-8"?>
<svg xmlns="http://www.w3.org/2000/svg" xmlns:xlink="http://www.w3.org/1999/xlink" width="512" height="512" viewBox="0 0 58 58" version="1.1"><!-- Generator: Sketch 51.3 (57544) - http://www.bohemiancoding.com/sketch --><title>001 - Racing Wheel</title><desc>Created with Sketch.</desc><defs/><g id="Page-1" stroke="none" stroke-width="1" fill="none" fill-rule="evenodd"><g id="001---Racing-Wheel" fill-rule="nonzero"><path d="M54.52,28.69 L52.42,34.2 L45.32,32.31 C42.6191912,31.589439 39.7368915,32.1647001 37.5196138,33.8668329 C35.3023361,35.5689657 34.0018131,38.204723 34,41 L34,52.47 L29.25,54.47 L29,54.37 L24,52.47 L24,41 C23.9981869,38.204723 22.6976639,35.5689657 20.4803862,33.8668329 C18.2631085,32.1647001 15.3808088,31.589439 12.68,32.31 L5.58,34.2 L3.49,29.19 L5.41,24.61 C10.17,22.85 19.35,20 29,20 C38.65,20 47.83,22.85 52.59,24.61 L54.52,28.69 Z" id="Shape" fill="#BDC3C7"/><path d="M54.52,28.69 L52.42,34.2 L45.32,32.31 C42.6191912,31.589439 39.7368915,32.1647001 37.5196138,33.8668329 C35.3023361,35.5689657 34.0018131,38.204723 34,41 L34,52.47 L29.25,54.47 L29,54.37 L29,20 C38.65,20 47.83,22.85 52.59,24.61 L54.52,28.69 Z" id="Shape" fill="#95A5A5"/><circle id="Oval" fill="#ECF0F1" cx="29" cy="29" r="6"/><path d="M35,29 C35,32.3137085 32.3137085,35 29,35 L29,23 C32.3137085,23 35,25.6862915 35,29 Z" id="Shape" fill="#BDC3C7"/><circle id="Oval" fill="#7F8C8D" cx="29" cy="29" r="2"/><path d="M29,0 C12.9837423,-2.66453526e-15 -1.55431223e-15,12.9837423 -3.55271368e-15,29 C-5.55111512e-15,45.0162577 12.9837423,58 29,58 C45.0162577,58 58,45.0162577 58,29 C58,12.9837423 45.0162577,6.66133815e-15 29,0 Z M29,53 C15.745166,53 5,42.254834 5,29 C5,15.745166 15.745166,5 29,5 C42.254834,5 53,15.745166 53,29 C52.9823719,42.2475253 42.2475253,52.9823719 29,53 Z" id="Shape" fill="#E57E25"/><path d="M29,0 L29,5 C42.254834,5 53,15.745166 53,29 C53,42.254834 42.254834,53 29,53 L29,58 C45.0162576,57.9999998 57.9999996,45.0162576 57.9999996,29 C57.9999996,12.9837424 45.0162576,2.38660837e-07 29,0 Z" id="Shape" fill="#D25627"/></g></g></svg>
