<svg height="511pt" viewBox="-82 1 511 511.99928" width="511pt" xmlns="http://www.w3.org/2000/svg"><path d="m128.5 54.855469c0-30.296875-24.5625-54.855469-54.859375-54.855469s-54.855469 24.558594-54.855469 54.855469 24.558594 54.859375 54.855469 54.859375 54.859375-24.5625 54.859375-54.859375zm-82.285156 0c0-15.148438 12.277344-27.425781 27.425781-27.425781s27.429687 12.277343 27.429687 27.425781c0 15.148437-12.28125 27.429687-27.429687 27.429687s-27.425781-12.28125-27.425781-27.429687zm0 0" fill="#c6c5ca"/><path d="m101.070312 54.855469c0 15.148437-12.277343 27.429687-27.429687 27.429687-15.148437 0-27.425781-12.28125-27.425781-27.429687 0-15.148438 12.277344-27.425781 27.425781-27.425781 15.152344 0 27.429687 12.277343 27.429687 27.425781zm0 0" fill="#787680"/><path d="m73.640625 420.570312c-25.246094 0-45.710937 20.46875-45.710937 45.714844s20.464843 45.714844 45.710937 45.714844c25.25 0 45.714844-20.46875 45.714844-45.714844s-20.464844-45.714844-45.714844-45.714844zm0 64c-10.097656 0-18.285156-8.1875-18.285156-18.285156s8.1875-18.285156 18.285156-18.285156c10.101563 0 18.289063 8.1875 18.289063 18.285156s-8.1875 18.285156-18.289063 18.285156zm0 0" fill="#c6c5ca"/><path d="m91.929688 466.285156c0 10.097656-8.1875 18.285156-18.289063 18.285156-10.097656 0-18.285156-8.1875-18.285156-18.285156s8.1875-18.285156 18.285156-18.285156c10.101563 0 18.289063 8.1875 18.289063 18.285156zm0 0" fill="#787680"/><path d="m146.785156 274.285156v-128c0-20.199218-16.375-36.570312-36.570312-36.570312h-73.144532c-20.199218 0-36.570312 16.375-36.570312 36.570312v128zm0 0" fill="#ff7956"/><path d="m128.5 274.285156h-109.714844l8.605469 137.710938c.296875 4.824218 4.304687 8.585937 9.140625 8.574218h74.257812c4.835938.011719 8.84375-3.75 9.144532-8.574218zm0 0" fill="#ffeb99"/><path d="m329.640625 54.855469c0-30.296875-24.558594-54.855469-54.855469-54.855469s-54.855468 24.558594-54.855468 54.855469 24.558593 54.859375 54.855468 54.859375 54.855469-24.5625 54.855469-54.859375zm-82.285156 0c0-15.148438 12.28125-27.425781 27.429687-27.425781 15.148438 0 27.429688 12.277343 27.429688 27.425781 0 15.148437-12.28125 27.429687-27.429688 27.429687-15.148437 0-27.429687-12.28125-27.429687-27.429687zm0 0" fill="#c6c5ca"/><path d="m302.214844 54.855469c0 15.148437-12.28125 27.429687-27.429688 27.429687-15.148437 0-27.429687-12.28125-27.429687-27.429687 0-15.148438 12.28125-27.425781 27.429687-27.425781 15.148438 0 27.429688 12.277343 27.429688 27.425781zm0 0" fill="#787680"/><path d="m274.785156 420.570312c-25.246094 0-45.714844 20.46875-45.714844 45.714844s20.46875 45.714844 45.714844 45.714844 45.714844-20.46875 45.714844-45.714844-20.46875-45.714844-45.714844-45.714844zm0 64c-10.097656 0-18.285156-8.1875-18.285156-18.285156s8.1875-18.285156 18.285156-18.285156 18.285156 8.1875 18.285156 18.285156-8.1875 18.285156-18.285156 18.285156zm0 0" fill="#c6c5ca"/><path d="m293.070312 466.285156c0 10.097656-8.1875 18.285156-18.285156 18.285156s-18.285156-8.1875-18.285156-18.285156 8.1875-18.285156 18.285156-18.285156 18.285156 8.1875 18.285156 18.285156zm0 0" fill="#787680"/><path d="m347.929688 274.285156v-128c0-20.199218-16.375-36.570312-36.574219-36.570312h-73.140625c-20.199219 0-36.570313 16.375-36.570313 36.570312v128zm0 0" fill="#ff7956"/><path d="m329.640625 274.285156h-109.710937l8.601562 137.710938c.300781 4.824218 4.308594 8.585937 9.144531 8.574218h74.257813c4.835937.011719 8.839844-3.75 9.140625-8.574218zm0 0" fill="#ffeb99"/><path d="m329.640625 274.285156-.546875 9.144532h-108.617188l-.546874-9.144532zm0 0" fill="#ffeb99"/><g fill="#ffd422"><path d="m329.640625 274.285156-.546875 9.144532h-108.617188l-.546874-9.144532zm0 0"/><path d="m128.5 274.285156-.550781 9.144532h-108.613281l-.550782-9.144532zm0 0"/></g></svg>