<?xml version="1.0" encoding="iso-8859-1"?>
<!-- Generator: Adobe Illustrator 19.0.0, SVG Export Plug-In . SVG Version: 6.00 Build 0)  -->
<svg version="1.1" id="Capa_1" xmlns="http://www.w3.org/2000/svg" xmlns:xlink="http://www.w3.org/1999/xlink" x="0px" y="0px"
	 viewBox="0 0 468.293 468.293" style="enable-background:new 0 0 468.293 468.293;" xml:space="preserve">
<path style="fill:#D5D6DB;" d="M154.084,0c-28.035,0-50.762,22.727-50.762,50.762V417.53c0,28.035,22.727,50.762,50.762,50.762
	s50.762-22.727,50.762-50.762V50.762C204.846,22.727,182.119,0,154.084,0z"/>
<path style="fill:#64798A;" d="M154.084,43.131c-4.881,0-8.836,3.958-8.836,8.836V403.56c0,4.878,3.955,8.836,8.836,8.836
	c4.881,0,8.836-3.958,8.836-8.836V51.967C162.919,47.089,158.965,43.131,154.084,43.131z"/>
<ellipse style="fill:#F7BE56;" cx="154.068" cy="295.772" rx="74.302" ry="74.302"/>
<ellipse style="fill:#FCD462;" cx="154.054" cy="295.755" rx="41.741" ry="41.741"/>
<g>
	<path style="fill:#3A556A;" d="M302.774,71.789H255.65c-6.506,0-11.781,5.275-11.781,11.781s5.275,11.781,11.781,11.781h47.124
		c6.506,0,11.781-5.275,11.781-11.781S309.28,71.789,302.774,71.789z"/>
	<path style="fill:#3A556A;" d="M302.774,172.175H255.65c-6.506,0-11.781,5.275-11.781,11.781c0,6.506,5.275,11.781,11.781,11.781
		h47.124c6.506,0,11.781-5.275,11.781-11.781C314.555,177.45,309.28,172.175,302.774,172.175z"/>
	<path style="fill:#3A556A;" d="M302.774,272.555H255.65c-6.506,0-11.781,5.275-11.781,11.781c0,6.506,5.275,11.781,11.781,11.781
		h47.124c6.506,0,11.781-5.275,11.781-11.781C314.555,277.83,309.28,272.555,302.774,272.555z"/>
	<path style="fill:#3A556A;" d="M302.774,372.94H255.65c-6.506,0-11.781,5.275-11.781,11.781s5.275,11.781,11.781,11.781h47.124
		c6.506,0,11.781-5.275,11.781-11.781S309.28,372.94,302.774,372.94z"/>
</g>
<g>
	<path style="fill:#2F4859;" d="M346.831,93.165h8.708c6.047,0,10.664-0.316,13.853-0.948c2.347-0.511,4.655-1.556,6.926-3.136
		c2.271-1.58,4.144-3.753,5.618-6.52c1.474-2.768,2.211-6.182,2.211-10.244c0-5.263-1.279-9.558-3.835-12.882
		c-2.557-3.324-5.73-5.483-9.521-6.475c-2.467-0.662-7.761-0.992-15.883-0.992h-21.433v66.149h13.356V93.165z M346.831,63.159h6.452
		c4.813,0,8.017,0.15,9.611,0.452c2.166,0.39,3.956,1.368,5.37,2.932c1.414,1.565,2.12,3.55,2.12,5.957
		c0,1.955-0.504,3.67-1.511,5.144c-1.008,1.473-2.399,2.557-4.174,3.249c-1.775,0.692-5.294,1.038-10.559,1.038h-7.31V63.159z"/>
	<path style="fill:#2F4859;" d="M342.432,190.887h2.708c3.068,0,5.309,0.248,6.723,0.744c1.414,0.496,2.753,1.414,4.016,2.753
		c1.263,1.339,3.61,4.58,7.039,9.724l9.656,14.394h15.973l-8.077-12.906c-3.189-5.144-5.723-8.724-7.603-10.739
		c-1.88-2.016-4.264-3.865-7.152-5.55c5.806-0.841,10.167-2.88,13.085-6.113c2.918-3.234,4.377-7.333,4.377-12.296
		c0-3.91-0.963-7.385-2.888-10.423c-1.925-3.039-4.49-5.151-7.693-6.339c-3.204-1.189-8.34-1.783-15.409-1.783h-28.111v66.15h13.356
		V190.887z M342.432,163.543h10.423c5.414,0,8.663,0.076,9.746,0.226c2.166,0.361,3.843,1.226,5.031,2.594
		c1.188,1.368,1.782,3.166,1.782,5.392c0,1.985-0.451,3.64-1.354,4.964c-0.902,1.324-2.151,2.256-3.745,2.798
		c-1.594,0.541-5.595,0.812-12.002,0.812h-9.882V163.543z"/>
	<polygon style="fill:#2F4859;" points="345.568,248.072 332.573,248.072 332.573,314.222 344.981,314.222 344.981,271.085 
		371.648,314.222 385.05,314.222 385.05,248.072 372.641,248.072 372.641,292.247 	"/>
	<path style="fill:#2F4859;" d="M378.056,357.529c-2.767-2.918-6.091-4.949-9.972-6.092c-2.888-0.842-7.084-1.263-12.589-1.263
		h-24.411v66.149h25.133c4.933,0,8.874-0.466,11.822-1.399c3.941-1.263,7.069-3.023,9.385-5.279
		c3.068-2.978,5.43-6.873,7.084-11.686c1.354-3.94,2.031-8.633,2.031-14.078c0-6.197-0.722-11.408-2.166-15.634
		C382.929,364.02,380.824,360.447,378.056,357.529z M371.378,395.409c-0.902,2.963-2.068,5.092-3.497,6.385
		c-1.429,1.293-3.226,2.21-5.392,2.753c-1.655,0.421-4.347,0.631-8.077,0.631h-9.972v-43.813h6.001c5.445,0,9.1,0.21,10.965,0.631
		c2.497,0.542,4.557,1.579,6.182,3.113c1.624,1.534,2.888,3.67,3.79,6.408c0.903,2.737,1.354,6.663,1.354,11.777
		C372.732,388.408,372.281,392.447,371.378,395.409z"/>
</g>
<g>
</g>
<g>
</g>
<g>
</g>
<g>
</g>
<g>
</g>
<g>
</g>
<g>
</g>
<g>
</g>
<g>
</g>
<g>
</g>
<g>
</g>
<g>
</g>
<g>
</g>
<g>
</g>
<g>
</g>
</svg>
